<svg width="86" height="86" viewBox="0 0 86 86" fill="none" xmlns="http://www.w3.org/2000/svg">
<path d="M43 86C66.7482 86 86 66.7482 86 43C86 19.2518 66.7482 0 43 0C19.2518 0 0 19.2518 0 43C0 66.7482 19.2518 86 43 86Z" fill="#3F65A6"/>
<path d="M36.466 28.857C36.466 30.1 36.466 35.643 36.466 35.643H31.4941V43.9406H36.466V66.6836H46.6785V43.9238H53.5316C53.5316 43.9238 54.1699 39.943 54.4891 35.5926C53.5988 35.5926 46.7289 35.5926 46.7289 35.5926C46.7289 35.5926 46.7289 30.7719 46.7289 29.9152C46.7289 29.0754 47.8375 27.9332 48.9461 27.9332C50.0379 27.9332 52.3559 27.9332 54.5059 27.9332C54.5059 26.8078 54.5059 22.8942 54.5059 19.2996C51.6336 19.2996 48.375 19.2996 46.9473 19.2996C36.2141 19.3164 36.466 27.6141 36.466 28.857Z" fill="white"/>
</svg>
