<svg width="86" height="87" viewBox="0 0 86 87" fill="none" xmlns="http://www.w3.org/2000/svg">
<rect width="86" height="87" rx="43" fill="white" fill-opacity="0.4"/>
<path d="M18 42.5C18 28.4167 29.4167 17 43.5 17V17C57.5833 17 69 28.4167 69 42.5V43.5C69 57.5833 57.5833 69 43.5 69V69C29.4167 69 18 57.5833 18 43.5V42.5Z" fill="white"/>
<path d="M43 4.34998C21.6264 4.34998 4.29999 21.8779 4.29999 43.5C4.29999 65.1221 21.6264 82.65 43 82.65C64.3736 82.65 81.7 65.1221 81.7 43.5C81.7 21.8779 64.3736 4.34998 43 4.34998ZM42.539 21.1514C42.6637 20.6129 43.1479 20.3719 43.233 20.3293C43.4558 20.2179 43.6544 20.2014 44.0535 20.1666C44.0535 20.1666 44.3966 20.144 44.6976 20.1527C54.9299 20.4302 63.7673 27.7791 65.0401 38.9116C65.1252 39.6554 65.2705 40.535 65.3127 42.3464C65.3213 42.7091 65.3273 43.3677 64.887 43.7923C64.6883 43.9837 64.4604 44.069 64.3013 44.1107C64.0803 44.0611 63.732 43.948 63.4645 43.6514C63.1025 43.2494 63.0827 42.7265 63.0733 42.5473C62.9658 40.5263 62.6828 38.507 62.2236 36.5365C60.5225 29.2311 53.9667 23.4656 46.5819 22.6304C45.7236 22.533 44.8627 22.4373 44.0002 22.3973C43.4154 22.3703 42.834 22.2607 42.6052 21.8639C42.4393 21.5725 42.521 21.2306 42.539 21.1514ZM46.5578 28.0305C46.5389 28.027 46.1269 28.0244 45.6058 27.8861C45.1956 27.7773 44.8756 27.6877 44.6323 27.4032C44.4018 27.1335 44.339 26.8029 44.3295 26.5559C44.382 26.3653 44.4929 26.0791 44.7484 25.8703C45.1087 25.5754 45.5636 25.5928 45.7778 25.6032C51.809 25.9077 55.3806 29.4408 55.3806 29.4408C55.6902 29.747 56.9862 31.0572 58.1136 33.1826C59.4733 35.7457 59.8655 38.1321 59.9919 39.5937C60.0228 39.9269 60.0142 40.421 59.7872 40.9291C59.6934 41.1379 59.5877 41.3685 59.3391 41.5503C59.0373 41.7713 58.7105 41.7878 58.5703 41.7861C58.4146 41.7269 58.2203 41.626 58.0491 41.4468C57.8281 41.2154 57.7266 40.9631 57.7154 40.8587C57.3972 38.0581 56.9638 35.3228 55.261 32.9573C53.099 29.9558 50.0374 28.6256 46.5578 28.0305ZM54.4449 38.6723C54.3864 39.4841 54.0604 39.7833 53.9787 39.8538C53.7354 40.0617 53.4541 40.1192 53.2839 40.1383C53.0869 40.0991 52.8074 40.0104 52.5804 39.7833C52.2441 39.4466 52.2011 38.9838 52.1839 38.8324C52.1039 38.1303 51.606 35.884 50.4699 34.8478C49.7596 34.1997 48.7783 33.8578 47.343 33.6472C46.7668 33.5628 46.2078 33.4445 46.0057 33.0582C45.8517 32.7633 45.9567 32.4301 45.9885 32.3248C46.2241 31.5557 47.146 31.3339 47.2191 31.3182C47.8315 31.4052 51.7453 32.0151 53.535 34.9592C54.5033 36.5522 54.4775 38.2191 54.4449 38.6723ZM65.2233 60.4798C63.7552 62.2885 62.3371 64.1929 60.5982 65.7067C59.1052 67.0056 57.153 67.1622 55.2103 66.3592C39.2495 59.7672 27.8021 48.5599 21.1998 32.3849C21.0339 31.9794 20.8997 31.5601 20.7587 31.1451C19.5228 27.5146 19.8952 26.1043 22.8399 23.6622C23.8022 22.8636 24.8325 22.1406 25.8774 21.4542C27.6335 20.3006 29.5651 20.3145 30.8929 21.9327C33.0997 24.6236 35.2049 27.4389 37.0161 30.4117C38.368 32.6311 37.8847 33.8873 35.9007 35.5586C35.4423 35.9449 34.9504 36.2912 34.4911 36.6766C33.343 37.6414 32.858 38.7915 33.3645 40.3175C35.5842 47.0078 40.2162 51.2378 46.673 53.485C47.4238 53.746 48.5969 53.1596 49.4182 52.688C50.0313 52.3357 50.3908 51.5336 50.8655 50.9333C52.1478 49.3107 54.2221 48.6243 55.9344 49.7231C58.9951 51.6875 61.9277 53.8695 64.8044 56.1045C65.421 56.5839 65.5707 57.6775 65.9035 58.4161C65.6343 59.2783 65.5974 60.0187 65.2233 60.4798Z" fill="#23F811"/>
</svg>
