<svg width="98" height="98" viewBox="0 0 98 98" fill="none" xmlns="http://www.w3.org/2000/svg">
<g clip-path="url(#clip0_227_25)">
<mask id="mask0_227_25" style="mask-type:luminance" maskUnits="userSpaceOnUse" x="6" y="6" width="87" height="87">
<path d="M6 49.0003C6 72.7487 25.2516 92.0004 49.0001 92.0004C72.7485 92.0004 92.0002 72.7487 92.0002 49.0003C92.0002 25.2518 72.7485 6.00019 49.0001 6.00019C25.2516 6.00019 6 25.2518 6 49.0003Z" fill="white"/>
</mask>
<g mask="url(#mask0_227_25)">
<path d="M6 49.0003C6 72.7487 25.2516 92.0004 49.0001 92.0004C72.7485 92.0004 92.0002 72.7487 92.0002 49.0003C92.0002 25.2518 72.7485 6.00019 49.0001 6.00019C25.2516 6.00019 6 25.2518 6 49.0003Z" fill="url(#paint0_linear_227_25)"/>
</g>
<mask id="mask1_227_25" style="mask-type:luminance" maskUnits="userSpaceOnUse" x="0" y="0" width="98" height="98">
<path d="M0.204834 0.205364H97.4969V97.1013H0.204834V0.205364Z" fill="white"/>
</mask>
<g mask="url(#mask1_227_25)">
<path d="M35.1071 52.1429L40.2088 66.2637C40.2088 66.2637 40.8465 67.5843 41.5297 67.5843C42.213 67.5843 52.3709 57.0165 52.3709 57.0165L63.6675 35.1976L35.2893 48.4984L35.1071 52.1429Z" fill="#C8DAEA"/>
</g>
<mask id="mask2_227_25" style="mask-type:luminance" maskUnits="userSpaceOnUse" x="0" y="0" width="98" height="98">
<path d="M0.204834 0.205364H97.4969V97.1013H0.204834V0.205364Z" fill="white"/>
</mask>
<g mask="url(#mask2_227_25)">
<path d="M41.8712 55.7644L40.8917 66.1726C40.8917 66.1726 40.4817 69.3611 43.6703 66.1726C46.8588 62.984 49.9107 60.5243 49.9107 60.5243" fill="#A9C6D8"/>
</g>
<mask id="mask3_227_25" style="mask-type:luminance" maskUnits="userSpaceOnUse" x="0" y="0" width="98" height="98">
<path d="M0.204834 0.205364H97.4969V97.1013H0.204834V0.205364Z" fill="white"/>
</mask>
<g mask="url(#mask3_227_25)">
<path d="M35.1989 52.6472L24.7058 49.228C24.7058 49.228 23.4534 48.7196 23.8557 47.5656C23.9387 47.3276 24.106 47.1254 24.6071 46.7759C26.9327 45.1554 67.645 30.5219 67.645 30.5219C67.645 30.5219 68.7948 30.1349 69.4744 30.3921C69.7848 30.5098 69.9831 30.6428 70.15 31.1282C70.2108 31.305 70.2458 31.6807 70.2411 32.0546C70.2374 32.3242 70.2046 32.5738 70.1806 32.9656C69.9328 36.9668 62.5135 66.8256 62.5135 66.8256C62.5135 66.8256 62.0696 68.5729 60.479 68.6323C59.8988 68.6542 59.1948 68.5365 58.353 67.8124C55.2319 65.1275 44.4429 57.8768 42.0593 56.2826C41.9244 56.1929 41.8865 56.0759 41.8636 55.9619C41.8301 55.7942 42.0093 55.5851 42.0093 55.5851C42.0093 55.5851 60.7953 38.8861 61.2953 37.134C61.3339 36.9981 61.1885 36.9311 60.9913 36.9897C59.7436 37.4489 38.1138 51.1069 35.727 52.6155C35.5874 52.7037 35.196 52.6469 35.196 52.6469" fill="white"/>
</g>
</g>
<defs>
<linearGradient id="paint0_linear_227_25" x1="49.0001" y1="92" x2="49.0001" y2="5.99983" gradientUnits="userSpaceOnUse">
<stop stop-color="#1D93D2"/>
<stop offset="1" stop-color="#38B0E3"/>
</linearGradient>
<clipPath id="clip0_227_25">
<rect width="97.2921" height="96.896" fill="white" transform="translate(0.204834 0.205383)"/>
</clipPath>
</defs>
</svg>
