<svg width="37" height="37" viewBox="0 0 37 37" fill="none" xmlns="http://www.w3.org/2000/svg">
<g clip-path="url(#clip0_227_25)">
<mask id="mask0_227_25" style="mask-type:luminance" maskUnits="userSpaceOnUse" x="2" y="2" width="33" height="34">
<path d="M2.20389 18.6325C2.20389 27.7009 9.52526 35.0522 18.5567 35.0522C27.5882 35.0522 34.9096 27.7009 34.9096 18.6325C34.9096 9.56413 27.5882 2.21283 18.5567 2.21283C9.52526 2.21283 2.20389 9.56413 2.20389 18.6325Z" fill="white"/>
</mask>
<g mask="url(#mask0_227_25)">
<path d="M2.20389 18.6325C2.20389 27.7009 9.52526 35.0522 18.5567 35.0522C27.5882 35.0522 34.9096 27.7009 34.9096 18.6325C34.9096 9.56413 27.5882 2.21283 18.5567 2.21283C9.52526 2.21283 2.20389 9.56413 2.20389 18.6325Z" fill="url(#paint0_linear_227_25)"/>
</g>
<mask id="mask1_227_25" style="mask-type:luminance" maskUnits="userSpaceOnUse" x="0" y="0" width="37" height="37">
<path d="M0 1.68675e-06H37V37H0V1.68675e-06Z" fill="white"/>
</mask>
<g mask="url(#mask1_227_25)">
<path d="M13.2733 19.8324L15.2134 25.2245C15.2134 25.2245 15.4559 25.7288 15.7158 25.7288C15.9756 25.7288 19.8386 21.6934 19.8386 21.6934L24.1347 13.3618L13.3425 18.4408L13.2733 19.8324Z" fill="#C8DAEA"/>
</g>
<mask id="mask2_227_25" style="mask-type:luminance" maskUnits="userSpaceOnUse" x="0" y="0" width="37" height="37">
<path d="M0 1.68675e-06H37V37H0V1.68675e-06Z" fill="white"/>
</mask>
<g mask="url(#mask2_227_25)">
<path d="M15.8456 21.2154L15.4731 25.1898C15.4731 25.1898 15.3172 26.4074 16.5298 25.1898C17.7424 23.9723 18.9031 23.033 18.9031 23.033" fill="#A9C6D8"/>
</g>
<mask id="mask3_227_25" style="mask-type:luminance" maskUnits="userSpaceOnUse" x="0" y="0" width="37" height="37">
<path d="M0 1.68675e-06H37V37H0V1.68675e-06Z" fill="white"/>
</mask>
<g mask="url(#mask3_227_25)">
<path d="M13.3082 20.025L9.31766 18.7194C9.31766 18.7194 8.84135 18.5253 8.99434 18.0846C9.02594 17.9937 9.08955 17.9165 9.2801 17.783C10.1645 17.1642 25.6474 11.5764 25.6474 11.5764C25.6474 11.5764 26.0846 11.4286 26.3431 11.5268C26.4611 11.5718 26.5365 11.6226 26.6 11.8079C26.6231 11.8754 26.6364 12.0189 26.6346 12.1616C26.6333 12.2646 26.6208 12.3599 26.6116 12.5095C26.5174 14.0374 23.6958 25.4391 23.6958 25.4391C23.6958 25.4391 23.527 26.1063 22.9221 26.129C22.7015 26.1373 22.4338 26.0924 22.1136 25.8159C20.9267 24.7906 16.8236 22.022 15.9171 21.4132C15.8659 21.3789 15.8515 21.3343 15.8427 21.2907C15.83 21.2267 15.8982 21.1468 15.8982 21.1468C15.8982 21.1468 23.0424 14.7703 23.2326 14.1013C23.2472 14.0494 23.192 14.0238 23.117 14.0462C22.6425 14.2215 14.4167 19.4368 13.509 20.0129C13.4559 20.0466 13.3071 20.0249 13.3071 20.0249" fill="white"/>
</g>
</g>
<defs>
<linearGradient id="paint0_linear_227_25" x1="18.5567" y1="35.0521" x2="18.5567" y2="2.21269" gradientUnits="userSpaceOnUse">
<stop offset="0.9999" stop-color="#777C7E"/>
<stop offset="1" stop-color="#38B0E3"/>
</linearGradient>
<clipPath id="clip0_227_25">
<rect width="37" height="37" fill="white"/>
</clipPath>
</defs>
</svg>
